<?xml version="1.0" standalone="no"?>
<!DOCTYPE svg PUBLIC "-//W3C//DTD SVG 20010904//EN"
        "http://www.w3.org/TR/2001/REC-SVG-20010904/DTD/svg10.dtd">
<svg version="1.0" xmlns="http://www.w3.org/2000/svg"
     width="96.000000pt" height="96.000000pt" viewBox="0 0 96.000000 96.000000"
     preserveAspectRatio="xMidYMid meet">

    <g transform="translate(0.000000,96.000000) scale(0.100000,-0.100000)"
       fill="rgb(244, 81, 30)" stroke="none">
        <path d="M216 944 c-9 -8 -16 -26 -16 -40 0 -19 -5 -24 -24 -24 -33 0 -56 -25
-56 -61 0 -26 -4 -29 -30 -29 -19 0 -33 -7 -40 -19 -6 -13 -10 -151 -10 -380
0 -314 2 -362 16 -375 13 -14 66 -16 424 -16 374 0 410 1 426 17 16 16 17 45
10 382 -4 238 -10 369 -18 378 -6 7 -21 13 -34 13 -20 0 -24 5 -24 29 0 36
-23 61 -56 61 -19 0 -24 5 -24 24 0 54 -10 56 -280 56 -213 0 -251 -2 -264
-16z m165 -233 c41 -42 41 -101 -1 -143 -27 -27 -30 -35 -30 -98 0 -67 0 -68
-31 -79 -18 -6 -36 -11 -40 -11 -5 0 -9 36 -9 79 0 75 -2 81 -30 109 -24 24
-30 39 -30 72 0 91 106 135 171 71z m350 0 c41 -42 41 -101 -1 -143 -25 -24
-30 -38 -30 -77 l0 -48 -175 -74 c-127 -54 -175 -79 -175 -91 0 -9 13 -30 30
-46 65 -66 21 -172 -72 -172 -88 0 -131 108 -69 171 23 23 31 40 33 76 l3 46
170 72 c190 80 199 89 146 143 -25 24 -31 39 -31 72 0 91 106 135 171 71z"/>
        <path d="M270 680 c-11 -11 -20 -29 -20 -40 0 -26 34 -60 60 -60 26 0 60 34
60 60 0 11 -9 29 -20 40 -11 11 -29 20 -40 20 -11 0 -29 -9 -40 -20z"/>
        <path d="M640 693 c-21 -7 -40 -34 -40 -55 0 -24 35 -58 60 -58 11 0 29 9 40
20 11 11 20 29 20 40 0 23 -34 60 -52 59 -7 0 -20 -3 -28 -6z"/>
        <path d="M270 200 c-11 -11 -20 -29 -20 -40 0 -26 34 -60 60 -60 26 0 60 34
60 60 0 11 -9 29 -20 40 -11 11 -29 20 -40 20 -11 0 -29 -9 -40 -20z"/>
    </g>
</svg>
